<?xml version="1.0" encoding="utf-8"?>
<!-- Generator: Adobe Illustrator 16.0.4, SVG Export Plug-In . SVG Version: 6.00 Build 0)  -->
<!DOCTYPE svg PUBLIC "-//W3C//DTD SVG 1.1//EN" "http://www.w3.org/Graphics/SVG/1.1/DTD/svg11.dtd" [
	<!ENTITY ns_flows "http://ns.adobe.com/Flows/1.0/">
	<!ENTITY ns_extend "http://ns.adobe.com/Extensibility/1.0/">
	<!ENTITY ns_ai "http://ns.adobe.com/AdobeIllustrator/10.0/">
	<!ENTITY ns_graphs "http://ns.adobe.com/Graphs/1.0/">
]>
<svg version="1.1" id="Layer_1" xmlns:x="&ns_extend;" xmlns:i="&ns_ai;" xmlns:graph="&ns_graphs;"
	 xmlns="http://www.w3.org/2000/svg" xmlns:xlink="http://www.w3.org/1999/xlink" xmlns:a="http://ns.adobe.com/AdobeSVGViewerExtensions/3.0/"
	 x="0px" y="0px" width="311.104px" height="56.873px" viewBox="0 0 311.104 56.873" enable-background="new 0 0 311.104 56.873"
	 xml:space="preserve">
<g>
	<g>
		<rect x="4.173" y="11.511" fill="#211D1E" width="8.723" height="39.67"/>
	</g>
	<g>
		<path fill="#211D1E" d="M68.809,27.805c-6.856-1.788-8.556-2.655-8.556-5.303v-0.113c0-1.964,1.756-3.523,5.102-3.523
			c3.344,0,6.8,1.496,10.312,3.978l4.817-7.071c-4.021-3.292-9.236-5.617-15.019-5.617c-8.104,0-14.592,4.673-14.592,12.517v0.635
			c0,7.011,5.867,10.263,13.859,12.337c6.627,1.732,7.712,3.58,7.712,5.416v0.109c0,1.649-1.879,3.307-5.448,3.307
			c-4.536,0-8.273-1.902-12.685-5.206l-5.161,6.511c5.604,4.626,11.674,6.756,17.675,6.756c8.561,0,15.29-4.156,15.29-12.17V40.25
			C82.117,33.22,76.858,29.936,68.809,27.805z"/>
	</g>
	<g>
		<polygon fill="#211D1E" points="97.664,35.085 116.362,35.085 116.362,27.322 97.664,27.322 97.664,19.277 118.914,19.277 
			118.914,11.511 88.99,11.511 88.99,51.181 119.196,51.181 119.196,43.416 97.664,43.416 		"/>
	</g>
	<g>
		<path fill="#211D1E" d="M150.103,11.146V4.715h-7.782v6.453c-10.159,1.749-17.19,10.153-17.19,20.177v0.109
			c0,11.281,8.787,20.403,21.024,20.403c12.241,0,21.143-9.237,21.143-20.513v-0.113C167.298,21.168,160.302,12.834,150.103,11.146z
			 M158.169,31.455c0,6.807-4.873,12.359-11.902,12.359c-7.023,0-12.01-5.67-12.01-12.469v-0.113
			c0-6.803,4.871-12.354,11.897-12.354c7.028,0,12.014,5.667,12.014,12.467V31.455z"/>
	</g>
	<g>
		<path fill="#211D1E" d="M199.919,34.234c0,6.29-3.234,9.523-8.561,9.523c-5.324,0-8.553-3.344-8.553-9.807v-22.44h-8.727v22.667
			c0,11.676,6.518,17.629,17.168,17.629c10.654,0,17.396-5.898,17.396-17.916V11.511h-8.725V34.234z"/>
	</g>
	<g>
		<polygon fill="#211D1E" points="226.276,11.511 217.552,11.511 217.552,51.181 246.054,51.181 246.054,43.248 226.276,43.248 		
			"/>
	</g>
	<g>
		<path fill="#211D1E" d="M299.069,11.511v22.723c0,6.29-3.229,9.523-8.559,9.523c-5.32,0-8.555-3.344-8.555-9.807v-22.44h-8.729
			v22.667c0,11.676,6.521,17.629,17.174,17.629S307.8,45.908,307.8,33.89V11.511H299.069z"/>
	</g>
	<path fill="#B22039" d="M37.933,30.169c0,3.342-2.711,6.052-6.053,6.052c-3.337,0-6.044-2.71-6.044-6.052
		c0-3.336,2.707-6.044,6.044-6.044C35.222,24.125,37.933,26.833,37.933,30.169z"/>
	<path fill="#5A90C5" d="M260.286,30.169c0,3.342-2.705,6.052-6.045,6.052c-3.344,0-6.049-2.71-6.049-6.052
		c0-3.336,2.705-6.043,6.049-6.043C257.581,24.126,260.286,26.833,260.286,30.169z"/>
</g>
</svg>
