<?xml version="1.0" encoding="utf-8"?>
<!-- Generator: Adobe Illustrator 16.0.0, SVG Export Plug-In . SVG Version: 6.00 Build 0)  -->
<!DOCTYPE svg PUBLIC "-//W3C//DTD SVG 1.1//EN" "http://www.w3.org/Graphics/SVG/1.1/DTD/svg11.dtd">
<svg version="1.1" id="Layer_1" xmlns="http://www.w3.org/2000/svg" xmlns:xlink="http://www.w3.org/1999/xlink" x="0px" y="0px"
	 width="206.961px" height="46.31px" viewBox="0 0 206.961 46.31" enable-background="new 0 0 206.961 46.31" xml:space="preserve">
<g opacity="0.5">
	<rect x="49.564" y="15.591" fill="#3B3B3B" width="4.407" height="26.301"/>
	<path fill="#3B3B3B" d="M60.062,15.591v26.301h8.006c6.812-0.013,10.031-2.414,10.036-7.228c0-3.013-1.71-5.302-4.527-6.149
		l-0.259-0.078l0.25-0.104c2.627-1.107,3.878-3.004,3.887-5.86c-0.009-4.496-3.068-6.863-9.275-6.881H60.062 M67.31,30.258
		c3.146,0.009,6.166,0.511,6.176,4.081c0,1.289-0.445,2.324-1.402,2.926c-0.953,0.602-2.397,0.87-4.41,0.87h-3.207v-7.877H67.31
		 M68.759,19.343c1.265,0,4.281,0.438,4.29,3.489c0.004,1.683-0.676,2.636-1.788,3.124c-1.096,0.494-2.609,0.555-4.314,0.555h-2.48
		v-7.168H68.759"/>
	<path fill="#3B3B3B" d="M102.794,15.591c-1.39,1.455-11.832,12.469-11.832,12.469s11.329,12.292,12.753,13.832h-6.137
		c-0.575-0.652-10.282-11.854-10.282-11.854v11.854h-4.401V15.591h4.401V26.23c0,0,9.266-10.05,9.819-10.639H102.794"/>
	<path fill="#3B3B3B" d="M152.418,30.626v2.696h-10.703v-2.691h-3.488v11.161h17.756V30.626H152.418 M152.418,35.863v3.199h-10.699
		v-3.199H152.418z M145.462,27.367c1.295-0.977,2.13-2.307,2.455-3.843h4.526v5.718h3.519v-13.65h-3.519v5.393h-4.484
		c-0.259-1.631-1.052-2.978-2.385-4.003c-1.337-1.038-2.917-1.571-4.721-1.571c-1.936,0-3.631,0.641-5.089,1.904
		c-1.478,1.264-2.222,2.879-2.213,4.816c-0.009,1.914,0.735,3.527,2.213,4.801c1.458,1.285,3.153,1.916,5.089,1.916
		C142.61,28.847,144.15,28.354,145.462,27.367z M138.16,25.109c-0.708-0.814-1.059-1.783-1.059-2.951
		c0.009-1.174,0.358-2.14,1.085-2.918c0.715-0.77,1.598-1.16,2.667-1.16c1.15,0,2.034,0.391,2.696,1.156
		c0.666,0.779,0.995,1.748,0.995,2.922c0,1.168-0.333,2.137-1.021,2.951c-0.693,0.809-1.584,1.198-2.731,1.198
		C139.749,26.307,138.88,25.917,138.16,25.109z M126.675,15.583v26.309h3.519V15.583H126.675z M108.957,18.816h9.214v1.516
		l-0.004,0.483c-0.126,6.346-4.567,11.626-10.514,13.022l-0.156,0.039l1.798,2.211l0.073-0.013
		c6.765-1.981,12.36-8.278,12.36-15.207v-4.614h-12.771V18.816z"/>
	<polyline fill="#3B3B3B" points="166.418,33.292 162.861,33.292 162.861,41.792 180.604,41.792 180.604,39.256 166.418,39.256 
		166.418,33.292 	"/>
	<path fill="#3B3B3B" d="M177.415,16.523c-1.645-1.121-3.614-1.689-5.904-1.689c-2.292,0-4.271,0.568-5.907,1.689
		c-1.645,1.129-2.476,2.713-2.476,4.725c0,1.982,0.84,3.554,2.476,4.67c1.637,1.112,3.615,1.67,5.907,1.67
		c2.29,0,4.26-0.558,5.904-1.67c1.644-1.116,2.475-2.688,2.475-4.67C179.89,19.236,179.059,17.652,177.415,16.523 M174.943,24.009
		c-0.892,0.727-2.03,1.082-3.433,1.082c-1.381,0-2.513-0.355-3.401-1.082c-0.887-0.727-1.332-1.632-1.332-2.762
		c0-1.125,0.445-2.063,1.332-2.83c0.896-0.774,2.021-1.164,3.401-1.164c1.402,0,2.541,0.39,3.425,1.164
		c0.891,0.767,1.327,1.705,1.327,2.83C176.263,22.377,175.826,23.283,174.943,24.009z"/>
	<rect x="159.714" y="28.912" fill="#3B3B3B" width="23.47" height="2.758"/>
	<g>
		<path fill="#FFFFFF" d="M9.939,7.304C8.841,7.853,8.018,8.797,7.632,9.969L0.271,32.097c-0.389,1.16-0.298,2.415,0.252,3.516
			c0.553,1.094,1.496,1.917,2.656,2.307l24.149,8.11c1.173,0.386,2.419,0.294,3.519-0.255c1.1-0.555,1.922-1.498,2.307-2.666
			l7.367-22.121c0.805-2.41-0.507-5.024-2.918-5.829L13.458,7.052C12.289,6.664,11.042,6.75,9.939,7.304"/>
		<path fill="#7A7A7A" d="M21.741,28.558c-1.312,1.467-2.947,2.648-4.844,3.38l-1.086,0.424V22.105l1.074,0.416
			c1.9,0.727,3.54,1.904,4.855,3.362c0.939-1.511,1.52-3.263,1.64-5.163c0.3-4.916-2.778-9.426-7.011-10.998l-3.484-1.159
			c-1.575-0.524-3.25,0.342-3.77,1.913L1.733,32.623c-0.527,1.574,0.355,3.279,1.935,3.8l16.758,5.595
			c1.704-1.816,2.813-4.223,2.978-6.911C23.555,32.712,22.927,30.453,21.741,28.558 M12.056,21.495V32.99h-1.662V21.495H12.056z"/>
		<path fill="#3B3B3B" d="M37.071,16.638l-15.383-5.141c2.065,2.26,3.328,5.262,3.338,8.552c0,2.604-0.81,5.089-2.221,7.176
			c1.416,2.073,2.232,4.558,2.242,7.163c0,3.107-1.121,5.964-2.978,8.18l5.777,1.93c1.579,0.528,3.246-0.342,3.77-1.917
			l7.388-22.142C39.528,18.868,38.646,17.158,37.071,16.638 M32.993,32.951l-2.077,0.004l-4.276-5.743l4.346-5.751l2.09-0.005
			L28.73,27.22L32.993,32.951z"/>
		<path fill="#686868" d="M20.776,27.225c-0.936-1.1-2.068-2.021-3.371-2.692v5.402C18.708,29.255,19.845,28.324,20.776,27.225"/>
	</g>
	<g>
		<path fill="#3B3B3B" d="M203.883,33.375c-1.573-0.93-3.447-1.389-5.646-1.389c-2.212,0-4.09,0.459-5.652,1.389
			c-1.571,0.922-2.352,2.211-2.352,3.861c0,1.631,0.78,2.904,2.352,3.826c1.562,0.917,3.44,1.375,5.652,1.375
			c2.199,0,4.073-0.458,5.646-1.375c1.563-0.922,2.341-2.195,2.341-3.826C206.224,35.585,205.446,34.296,203.883,33.375
			 M201.551,39.261c-0.86,0.541-1.965,0.801-3.314,0.801c-1.334,0-2.429-0.26-3.303-0.801c-0.853-0.528-1.296-1.203-1.296-2.029
			c0-0.832,0.443-1.52,1.296-2.088c0.874-0.566,1.969-0.848,3.303-0.848c1.35,0,2.454,0.281,3.314,0.848
			c0.87,0.568,1.294,1.256,1.294,2.088C202.845,38.058,202.421,38.733,201.551,39.261z"/>
		<rect x="186.199" y="15.92" fill="#3B3B3B" width="7.974" height="2.362"/>
		<polyline fill="#3B3B3B" points="203.594,15.578 203.594,21.654 201.607,21.654 201.607,15.578 198.236,15.578 198.236,30.453 
			201.607,30.453 201.607,24.018 203.594,24.018 203.594,31.48 206.961,31.48 206.961,15.578 203.594,15.578 		"/>
		<path fill="#3B3B3B" d="M197.038,19.136h-12.236v2.35h2.567c-1.487,0.961-2.463,2.484-2.463,4.225
			c0,2.916,2.701,5.283,6.023,5.283c3.342,0,6.043-2.367,6.043-5.283c0-1.74-0.978-3.264-2.462-4.225h2.527V19.136 M190.93,28.865
			c-1.578,0-2.855-1.41-2.855-3.154c0-1.736,1.277-3.146,2.855-3.146c1.593,0,2.879,1.41,2.879,3.146
			C193.809,27.455,192.522,28.865,190.93,28.865z"/>
	</g>
	<g>
		<path fill="#3B3B3B" d="M53.846,6.291c-0.831-0.146-2.226-1.099-2.679-1.895c-0.351,0.839-1.767,1.921-2.709,2.182l-0.74-0.953
			c2.449-0.887,2.812-2.25,2.812-2.691h-2.121V1.902h5.484v1.031h-2.135c0,0.441,0.802,1.896,2.666,2.362L53.846,6.291
			 M49.569,11.039V7.187h6.968v3.852H49.569z M49.608,1.054V0.029h3.168v1.025H49.608z M55.39,9.983v-1.74h-4.678v1.74H55.39z
			 M56.537,3.802v2.809H55.39V0.029h1.147v2.656h1.454v1.117H56.537z"/>
		<path fill="#3B3B3B" d="M62.536,9.437v1.598h-1.48V9.437H62.536z M61.173,4.88V0.029h1.254V4.88l-0.354,3.303h-0.537L61.173,4.88z
			"/>
		<path fill="#3B3B3B" d="M71.638,5.496V4.508h4.418V3.357h1.19v1.151h4.419v0.987H71.638 M81.003,3.158l-0.619,0.883
			c-1.619-0.147-3.086-0.974-3.739-1.744c-0.605,0.887-2.237,1.58-3.743,1.783l-0.615-0.887c0.936-0.113,3.177-0.736,3.7-1.758
			h-3.167V0.41h7.66v1.025h-3.168C77.848,2.431,79.908,3.08,81.003,3.158z M72.421,8.325V7.412h8.443v0.913H72.421z M76.675,11.359
			c-1.943,0-3.738-0.338-3.738-1.363c0-1.018,1.856-1.372,3.738-1.372c1.826,0,3.722,0.347,3.722,1.372
			C80.396,11.035,78.394,11.359,76.675,11.359z M74.256,6.931v-0.9h4.734v0.9H74.256z M76.675,9.515c-1.061,0-2.35,0.021-2.35,0.489
			c0,0.446,1.289,0.458,2.35,0.458c0.952,0,2.328-0.012,2.328-0.458C79.003,9.537,77.666,9.515,76.675,9.515z"/>
		<path fill="#3B3B3B" d="M82.942,6.776V5.703H92.97v1.073H82.942z M87.949,4.763c-2.454,0-3.821-0.986-3.821-2.376
			c0-1.372,1.354-2.433,3.821-2.433c2.479,0,3.813,1.048,3.813,2.433C91.763,3.777,90.442,4.763,87.949,4.763z M84.235,10.922V7.75
			h1.135v2.104h6.607v1.069H84.235z M87.958,0.937c-1.576,0-2.611,0.611-2.611,1.438c0,0.83,1.096,1.372,2.603,1.372
			c1.536,0,2.627-0.511,2.627-1.351S89.532,0.937,87.958,0.937z"/>
		<path fill="#3B3B3B" d="M98.236,6.776V5.703h10.031v1.073H98.236z M103.239,4.763c-2.449,0-3.816-0.986-3.816-2.376
			c0-1.372,1.357-2.433,3.816-2.433c2.488,0,3.822,1.048,3.822,2.433C107.062,3.777,105.735,4.763,103.239,4.763z M99.526,10.922
			V7.75h1.143v2.104h6.604v1.069H99.526z M103.253,0.937c-1.572,0-2.605,0.611-2.605,1.438c0,0.83,1.094,1.372,2.592,1.372
			c1.541,0,2.636-0.511,2.636-1.351S104.828,0.937,103.253,0.937z"/>
		<path fill="#3B3B3B" d="M109.329,2.751V1.773h5.089v0.979H109.329z M111.861,6.802c-1.381,0-2.294-0.736-2.294-1.788
			c0-1.038,0.913-1.73,2.306-1.73c1.415,0,2.295,0.692,2.295,1.748C114.168,6.066,113.275,6.802,111.861,6.802z M110.542,1.115
			V0.141h2.635v0.974H110.542z M114.557,11.385c-2.501,0-3.881-0.896-3.881-2.103c0-1.203,1.401-2.018,3.902-2.018
			c2.522,0,3.878,0.857,3.878,2.055C118.456,10.524,117.085,11.385,114.557,11.385z M111.873,4.205
			c-0.791,0-1.178,0.316-1.178,0.827c0,0.52,0.387,0.849,1.178,0.849c0.806,0,1.173-0.329,1.173-0.849
			C113.046,4.521,112.679,4.205,111.873,4.205z M114.57,8.234c-1.57,0-2.653,0.355-2.653,1.064c0,0.697,1.064,1.091,2.653,1.091
			c1.539,0,2.601-0.394,2.601-1.077C117.171,8.589,116.133,8.234,114.57,8.234z M117.4,6.996V3.966h-1.177V6.75h-1.065v-6.53h1.065
			v2.597h1.177V0.029h1.064v6.967H117.4z"/>
	</g>
</g>
</svg>
