<?xml version="1.0" encoding="utf-8"?>
<!-- Generator: Adobe Illustrator 16.0.0, SVG Export Plug-In . SVG Version: 6.00 Build 0)  -->
<!DOCTYPE svg PUBLIC "-//W3C//DTD SVG 1.1//EN" "http://www.w3.org/Graphics/SVG/1.1/DTD/svg11.dtd">
<svg version="1.1" id="Layer_1" xmlns="http://www.w3.org/2000/svg" xmlns:xlink="http://www.w3.org/1999/xlink" x="0px" y="0px"
	 width="916.526px" height="906.127px" viewBox="0 0 916.526 906.127" enable-background="new 0 0 916.526 906.127"
	 xml:space="preserve">
<g opacity="0.6">
	<polygon fill="none" points="843.43,906.319 916.526,906.356 916.526,686.84 	"/>
	<polygon fill="#FFFFFF" points="837.093,370.937 784.15,371.049 674.059,516.749 782.369,662.254 835.015,662.131 727.001,516.984 
			"/>
	<rect x="262.472" y="371.926" fill="#FFFFFF" width="42.105" height="291.194"/>
	<path fill="#FFFFFF" d="M558.279,905.776c47.053-56.133,75.431-128.508,75.431-207.23c-0.224-66.004-20.955-128.94-56.803-181.448
		c35.747-52.858,56.232-115.794,56.232-181.786c-0.199-83.334-32.209-159.408-84.51-216.642l367.896,122.958v-42.047L340.077,6.068
		c-29.587-9.858-61.179-7.682-89.111,6.358c-27.856,13.916-48.688,37.838-58.434,67.526L6.022,640.534
		c-9.845,29.376-7.545,61.168,6.357,89.037c14.052,27.731,37.927,48.574,67.291,58.446l351.657,118.096l128.152,0.063
		L558.279,905.776z M92.09,750.093c-40.002-13.175-62.393-56.371-48.984-96.274L230.111,92.792
		c13.162-39.806,55.588-61.737,95.519-48.465l88.245,29.379C521.119,113.512,599.05,227.77,591.478,352.309
		c-3.066,48.131-17.761,92.525-41.535,130.796c-33.324-36.947-74.863-66.771-123.003-85.176l-27.19-10.541v259.837l27.51-10.735
		c48.02-18.543,89.459-48.454,122.684-85.636c30.057,48.018,45.941,105.253,42.081,165.889
		c-4.155,68.095-32.212,129.053-75.405,175.093L92.09,750.093z M525.5,517.098c-23.578,27.844-52.423,51.419-85.427,68.639V448.9
		C473.077,465.898,501.823,489.238,525.5,517.098z"/>
	<path fill="#FFFFFF" d="M916.526,557.29L800.131,906.098c-0.022,0.067-0.05,0.133-0.072,0.2l43.371,0.021l73.097-219.479V557.29z"
		/>
	<path fill="#00A4E3" d="M549.942,550.854c-33.225,37.182-74.664,67.093-122.684,85.636l-27.51,10.735V387.388l27.19,10.541
		c48.14,18.405,89.679,48.229,123.003,85.176c23.774-38.271,38.469-82.665,41.535-130.796
		c7.572-124.539-70.358-238.797-177.603-278.603L325.63,44.327c-39.931-13.272-82.356,8.659-95.519,48.465L43.106,653.818
		c-13.409,39.903,8.981,83.1,48.984,96.274l424.528,141.743c43.193-46.04,71.25-106.998,75.405-175.093
		C595.884,656.107,579.999,598.872,549.942,550.854z M304.577,663.12h-42.105V371.926h42.105V663.12z"/>
	<path fill="#004898" d="M548.63,118.67c52.301,57.234,84.311,133.308,84.51,216.642c0,65.992-20.485,128.927-56.232,181.786
		c35.848,52.508,56.579,115.444,56.803,181.448c0,78.723-28.378,151.098-75.431,207.23l1.2,0.4l240.579,0.121
		c0.022-0.067,0.05-0.133,0.072-0.2L916.526,557.29V241.628L548.63,118.67z M782.369,662.254L674.059,516.749l110.092-145.7
		l52.942-0.113L727.001,516.984l108.014,145.146L782.369,662.254z"/>
	<path fill="#E7380E" d="M440.073,585.736c33.004-17.22,61.849-40.795,85.427-68.639c-23.677-27.859-52.423-51.199-85.427-68.197
		V585.736z"/>
</g>
</svg>
