<?xml version="1.0" encoding="utf-8"?>
<!-- Generator: Adobe Illustrator 16.0.0, SVG Export Plug-In . SVG Version: 6.00 Build 0)  -->
<!DOCTYPE svg PUBLIC "-//W3C//DTD SVG 1.1//EN" "http://www.w3.org/Graphics/SVG/1.1/DTD/svg11.dtd">
<svg version="1.1" id="Layer_1" xmlns="http://www.w3.org/2000/svg" xmlns:xlink="http://www.w3.org/1999/xlink" x="0px" y="0px"
	 width="438.544px" height="46.31px" viewBox="0 0 438.544 46.31" enable-background="new 0 0 438.544 46.31" xml:space="preserve">
<g>
	<path fill="#333333" d="M230.109,18.303h5.19v-2.651h3.461V30.89H235.3v-4.019h-4.828c-1.199,1.479-3.069,2.4-5.33,2.4
		c-3.99,0-6.727-2.846-6.727-6.475c0-3.628,2.736-6.53,6.727-6.53C227.206,16.266,228.937,17.047,230.109,18.303z M230.36,30.667
		c5.805,0,8.707,2.428,8.707,5.526c0,3.098-2.902,5.526-8.707,5.526c-5.777,0-8.651-2.428-8.651-5.526
		C221.709,33.095,224.583,30.667,230.36,30.667z M221.792,22.796c0,2.177,1.312,3.628,3.35,3.628c1.981,0,3.32-1.452,3.32-3.628
		c0-2.149-1.339-3.656-3.32-3.656C223.132,19.141,221.792,20.647,221.792,22.796z M230.36,33.485c-3.768,0-5.163,1.284-5.163,2.707
		s1.396,2.707,5.163,2.707c3.795,0,5.219-1.284,5.219-2.707S234.155,33.485,230.36,33.485z M231.728,24.192h3.601v-3.237h-3.712
		c0.168,0.586,0.252,1.2,0.252,1.842C231.868,23.271,231.812,23.745,231.728,24.192z"/>
	<path fill="#333333" d="M252.018,16.294c0.028,1.786-0.14,3.46-0.53,4.968c1.34,2.707,3.293,4.661,6.502,6.251l-2.12,2.26
		c-2.372-1.144-4.298-2.902-5.722-5.107c-1.367,2.484-3.461,4.465-6.111,6l-2.484-2.289c5.023-2.847,7.256-6.419,6.949-12.084
		H252.018z M254.278,31.336c5.665,0,8.651,2.289,8.651,5.219c0,2.875-2.986,5.163-8.651,5.163c-5.666,0-8.596-2.289-8.596-5.163
		C245.683,33.625,248.612,31.336,254.278,31.336z M254.278,34.099c-3.712,0-5.107,1.172-5.107,2.456
		c0,1.228,1.396,2.428,5.107,2.428c3.711,0,5.135-1.2,5.135-2.428C259.413,35.271,257.989,34.099,254.278,34.099z M266.307,24.61
		h-3.88v6.447h-3.432V15.652h3.432v6.056h3.88V24.61z"/>
	<path fill="#333333" d="M277.917,32.564v2.037c2.4-0.111,4.855-0.307,7.005-0.586v2.763c-3.907,0.559-9.015,0.837-13.062,0.837
		h-4.438v-2.847h4.354c0.838,0,1.759,0,2.707-0.028v-2.149c-3.098-0.446-4.799-2.177-4.799-4.438c0-2.567,2.287-4.465,6.418-4.465
		c4.103,0,6.391,1.898,6.391,4.465C282.493,30.36,280.875,32.062,277.917,32.564z M268.037,23.02V20.34h16.02v2.679H268.037z
		 M271.19,19.113v-2.735h9.489v2.735H271.19z M279.062,28.155c0-1.088-0.754-1.954-2.959-1.954c-2.232,0-2.986,0.865-2.986,1.954
		c0,1.172,0.754,1.981,2.986,1.981C278.308,30.136,279.062,29.327,279.062,28.155z M289.164,41.523h-3.433V15.652h3.433V41.523z"/>
	<path fill="#333333" d="M292.262,33.318h4.409c3.824,0,9.015-0.195,13.09-0.726v2.847c-3.908,0.558-9.016,0.809-13.062,0.809
		h-4.437V33.318z M307.472,23.857c0,3.517-2.512,6.531-6.781,6.531c-4.271,0-6.782-3.042-6.782-6.531c0-3.517,2.512-6.53,6.782-6.53
		C304.96,17.327,307.472,20.312,307.472,23.857z M303.955,23.857c0-2.316-1.256-3.656-3.265-3.656c-2.066,0-3.294,1.339-3.294,3.656
		c0,2.344,1.228,3.684,3.294,3.684C302.699,27.541,303.955,26.201,303.955,23.857z M314.058,41.523h-3.461V15.652h3.461V41.523z"/>
	<path fill="#333333" d="M330.971,31.755h-2.651c-0.809,2.651-2.428,4.019-4.912,4.019c-3.768,0-5.582-3.293-5.582-9.293
		c0-6.112,1.787-9.266,5.582-9.266c2.484,0,4.047,1.284,4.856,3.768h2.707v-5.051h3.182v24.95h-3.182V31.755z M325.724,26.48
		c0-3.963-0.613-6.251-2.316-6.251c-1.674,0-2.148,2.289-2.148,6.251c0,3.991,0.475,6.279,2.148,6.279
		C325.11,32.76,325.724,30.471,325.724,26.48z M328.85,28.853h2.149v-4.968h-2.149c0.083,0.81,0.112,1.675,0.112,2.596
		C328.962,27.317,328.933,28.127,328.85,28.853z M339.147,41.523h-3.236V15.652h3.236V41.523z"/>
	<path fill="#333333" d="M342.218,22.853c0-3.656,2.791-6.586,6.727-6.586c3.99,0,6.781,2.93,6.781,6.586
		c0,3.684-2.791,6.53-6.781,6.53C345.009,29.383,342.218,26.508,342.218,22.853z M358.628,41.579v-6.949h-13.229v-2.846h16.662
		v9.795H358.628z M345.651,22.853c0,2.177,1.311,3.656,3.293,3.656c2.064,0,3.349-1.479,3.349-3.656
		c0-2.177-1.284-3.684-3.349-3.684C346.99,19.168,345.651,20.675,345.651,22.853z M362.062,18.945h3.768v2.847h-3.797v2.344h3.797
		v2.818h-3.768v3.74h-3.434V15.652h3.434V18.945z"/>
	<path fill="#333333" d="M368.341,36.109l-2.512-2.01c4.688-3.488,7.842-8.316,7.283-16.912h3.572
		c0.057,2.484-0.139,4.716-0.558,6.754c1.451,3.991,3.739,6.949,7.228,9.321l-2.316,2.344c-2.707-1.898-4.799-4.27-6.334-7.2
		C373.28,31.56,371.132,34.071,368.341,36.109z M384.667,15.652h3.461v25.871h-3.461V15.652z"/>
	<path fill="#333333" d="M415.422,35.021v2.875h-23.946v-2.875H415.422z M405.04,20.843c2.064,3.768,4.939,6.14,9.377,7.787
		l-2.094,2.624c-3.795-1.368-6.67-3.74-8.707-6.949c-1.897,3.265-5.135,5.665-8.734,6.977l-2.121-2.624
		c5.972-2.177,9.32-5.331,9.182-11.805h3.46C405.486,18.248,405.347,19.587,405.04,20.843z"/>
	<path fill="#333333" d="M421.282,27.15h0.475c2.373,0,5.191-0.224,7.676-0.837v2.595c-2.541,0.698-6.113,0.921-9.518,0.921h-2.01
		V16.852h9.406v2.679h-6.029v2.456h5.08v2.623h-5.08V27.15z M438.502,41.132h-16.829v-9.349h16.829V41.132z M435.069,34.602h-9.936
		v3.74h9.936V34.602z M430.548,15.931h3.098v14.763h-3.098v-6.335h-2.846v-2.735h2.846V15.931z M438.502,30.694h-3.126V15.652h3.126
		V30.694z"/>
</g>
<g>
	<rect x="49.53" y="15.637" fill="#004898" width="4.408" height="26.301"/>
	<path fill="#004898" d="M60.028,15.637v26.301h8.006c6.812-0.013,10.031-2.415,10.037-7.228c0-3.013-1.711-5.302-4.527-6.15
		l-0.26-0.078l0.25-0.104c2.627-1.107,3.879-3.004,3.887-5.86c-0.008-4.496-3.068-6.864-9.275-6.881H60.028 M67.276,30.304
		c3.146,0.009,6.166,0.511,6.176,4.082c0,1.289-0.445,2.324-1.402,2.925c-0.953,0.603-2.396,0.871-4.41,0.871h-3.207v-7.877H67.276
		 M68.726,19.389c1.266,0,4.281,0.437,4.291,3.489c0.004,1.683-0.676,2.635-1.789,3.124c-1.096,0.494-2.609,0.554-4.314,0.554h-2.48
		v-7.167H68.726"/>
	<path fill="#004898" d="M102.761,15.637c-1.389,1.455-11.832,12.468-11.832,12.468s11.33,12.292,12.754,13.833h-6.137
		c-0.576-0.653-10.283-11.854-10.283-11.854v11.854h-4.4V15.637h4.4v10.638c0,0,9.266-10.049,9.82-10.638H102.761"/>
	<path fill="#004898" d="M152.386,30.672v2.696h-10.703v-2.691h-3.488v11.161h17.756V30.672H152.386 M152.386,35.909v3.198h-10.699
		v-3.198H152.386z M145.429,27.413c1.295-0.978,2.131-2.307,2.455-3.843h4.527v5.718h3.518V15.637h-3.518v5.393h-4.484
		c-0.26-1.631-1.053-2.978-2.385-4.003c-1.338-1.039-2.918-1.571-4.721-1.571c-1.936,0-3.631,0.641-5.09,1.904
		c-1.477,1.264-2.221,2.878-2.213,4.817c-0.008,1.913,0.736,3.527,2.213,4.8c1.459,1.285,3.154,1.917,5.09,1.917
		C142.577,28.893,144.118,28.399,145.429,27.413z M138.128,25.154c-0.709-0.814-1.059-1.784-1.059-2.952
		c0.008-1.173,0.357-2.139,1.084-2.917c0.715-0.77,1.598-1.16,2.668-1.16c1.15,0,2.033,0.39,2.695,1.156
		c0.666,0.779,0.996,1.748,0.996,2.921c0,1.168-0.334,2.138-1.021,2.952c-0.693,0.809-1.584,1.198-2.732,1.198
		C139.716,26.353,138.847,25.963,138.128,25.154z M126.642,15.628v26.31h3.52v-26.31H126.642z M108.925,18.861h9.213v1.516
		l-0.004,0.484c-0.125,6.346-4.566,11.625-10.514,13.022l-0.156,0.04l1.799,2.211l0.072-0.013
		c6.766-1.981,12.361-8.279,12.361-15.207v-4.614h-12.771V18.861z"/>
	<polyline fill="#004898" points="166.386,33.338 162.829,33.338 162.829,41.838 180.569,41.838 180.569,39.302 166.386,39.302 
		166.386,33.338 	"/>
	<path fill="#004898" d="M177.38,16.568c-1.643-1.121-3.611-1.688-5.902-1.688s-4.27,0.567-5.906,1.688
		c-1.645,1.129-2.477,2.713-2.477,4.726c0,1.982,0.84,3.553,2.477,4.67c1.637,1.112,3.615,1.67,5.906,1.67s4.26-0.558,5.902-1.67
		c1.645-1.117,2.475-2.688,2.475-4.67C179.854,19.281,179.024,17.697,177.38,16.568 M174.911,24.055
		c-0.893,0.727-2.031,1.082-3.434,1.082c-1.381,0-2.512-0.355-3.4-1.082c-0.887-0.727-1.332-1.632-1.332-2.761
		c0-1.125,0.445-2.064,1.332-2.83c0.896-0.775,2.02-1.165,3.4-1.165c1.402,0,2.541,0.39,3.426,1.165
		c0.891,0.766,1.326,1.705,1.326,2.83C176.229,22.423,175.794,23.328,174.911,24.055z"/>
	<rect x="159.681" y="28.958" fill="#004898" width="23.469" height="2.757"/>
	<g>
		<path fill="#FFFFFF" d="M9.905,7.349c-1.098,0.549-1.922,1.494-2.307,2.666L0.237,32.143c-0.389,1.16-0.299,2.415,0.252,3.515
			c0.553,1.095,1.496,1.917,2.656,2.307l24.148,8.11c1.174,0.385,2.42,0.294,3.52-0.255c1.1-0.554,1.922-1.499,2.307-2.666
			l7.367-22.121c0.805-2.411-0.508-5.025-2.918-5.83L13.425,7.098C12.255,6.709,11.009,6.795,9.905,7.349"/>
		<path fill="#00A4E3" d="M21.708,28.603c-1.312,1.468-2.947,2.648-4.844,3.38l-1.086,0.424V22.15l1.074,0.416
			c1.9,0.727,3.539,1.904,4.855,3.362c0.939-1.511,1.52-3.263,1.639-5.163c0.301-4.916-2.777-9.426-7.01-10.998l-3.484-1.16
			c-1.576-0.524-3.25,0.342-3.77,1.913L1.7,32.667c-0.527,1.575,0.355,3.28,1.934,3.8l16.758,5.595
			c1.705-1.817,2.814-4.224,2.979-6.912C23.521,32.758,22.894,30.499,21.708,28.603 M12.022,21.54v11.495H10.36V21.54H12.022z"/>
		<path fill="#004898" d="M37.038,16.684l-15.383-5.141c2.064,2.259,3.328,5.262,3.338,8.552c0,2.605-0.811,5.089-2.221,7.176
			c1.416,2.073,2.232,4.557,2.242,7.163c0,3.107-1.121,5.964-2.979,8.18l5.777,1.93c1.58,0.528,3.246-0.341,3.77-1.917l7.389-22.142
			C39.495,18.913,38.612,17.204,37.038,16.684 M32.96,32.996L30.882,33l-4.275-5.744l4.346-5.751l2.09-0.004l-4.346,5.765
			L32.96,32.996z"/>
		<path fill="#E7380E" d="M20.743,27.271c-0.936-1.1-2.068-2.021-3.371-2.692v5.401C18.675,29.3,19.812,28.37,20.743,27.271"/>
	</g>
	<g>
		<path fill="#004898" d="M203.851,33.42c-1.574-0.93-3.447-1.39-5.646-1.39c-2.215,0-4.092,0.459-5.654,1.39
			c-1.572,0.921-2.352,2.211-2.352,3.86c0,1.632,0.779,2.904,2.352,3.827c1.562,0.917,3.439,1.375,5.654,1.375
			c2.199,0,4.072-0.458,5.646-1.375c1.562-0.922,2.34-2.195,2.34-3.827C206.19,35.631,205.413,34.342,203.851,33.42 M201.519,39.306
			c-0.861,0.542-1.965,0.802-3.314,0.802c-1.334,0-2.432-0.26-3.305-0.802c-0.854-0.528-1.297-1.203-1.297-2.029
			c0-0.832,0.443-1.52,1.297-2.087c0.873-0.567,1.971-0.848,3.305-0.848c1.35,0,2.453,0.281,3.314,0.848
			c0.869,0.567,1.293,1.255,1.293,2.087C202.812,38.103,202.388,38.778,201.519,39.306z"/>
		<rect x="186.165" y="15.966" fill="#004898" width="7.973" height="2.363"/>
		<polyline fill="#004898" points="203.562,15.624 203.562,21.7 201.575,21.7 201.575,15.624 198.204,15.624 198.204,30.499 
			201.575,30.499 201.575,24.063 203.562,24.063 203.562,31.525 206.929,31.525 206.929,15.624 203.562,15.624 		"/>
		<path fill="#004898" d="M197.005,19.182h-12.238v2.349h2.568c-1.488,0.961-2.463,2.485-2.463,4.225
			c0,2.917,2.701,5.284,6.023,5.284c3.342,0,6.045-2.367,6.045-5.284c0-1.74-0.98-3.264-2.465-4.225h2.529V19.182 M190.896,28.91
			c-1.578,0-2.855-1.411-2.855-3.154c0-1.736,1.277-3.146,2.855-3.146c1.592,0,2.879,1.411,2.879,3.146
			C193.774,27.5,192.487,28.91,190.896,28.91z"/>
	</g>
	<g>
		<path fill="#004898" d="M53.812,6.335c-0.83-0.146-2.225-1.098-2.678-1.895c-0.352,0.839-1.768,1.921-2.709,2.182l-0.74-0.953
			c2.449-0.887,2.812-2.25,2.812-2.692h-2.121v-1.03h5.484v1.03h-2.135c0,0.442,0.801,1.896,2.666,2.363L53.812,6.335
			 M49.536,11.083V7.232h6.967v3.851H49.536z M49.575,1.1V0.074h3.168V1.1H49.575z M55.356,10.028v-1.74h-4.678v1.74H55.356z
			 M56.503,3.848v2.809h-1.146V0.074h1.146v2.657h1.455v1.117H56.503z"/>
		<path fill="#004898" d="M62.503,9.483v1.597h-1.48V9.483H62.503z M61.14,4.926V0.074h1.254v4.852L62.04,8.228h-0.537L61.14,4.926z
			"/>
		<path fill="#004898" d="M71.604,5.541V4.554h4.418V3.402h1.191v1.152h4.418v0.987H71.604 M80.97,3.203l-0.619,0.883
			c-1.619-0.147-3.086-0.974-3.738-1.744c-0.605,0.887-2.238,1.579-3.744,1.782l-0.615-0.887c0.936-0.112,3.178-0.736,3.701-1.757
			h-3.168V0.455h7.66v1.026h-3.168C77.815,2.476,79.876,3.125,80.97,3.203z M72.388,8.37V7.457h8.443V8.37H72.388z M76.642,11.404
			c-1.943,0-3.738-0.337-3.738-1.363c0-1.017,1.857-1.372,3.738-1.372c1.826,0,3.723,0.346,3.723,1.372
			C80.364,11.08,78.36,11.404,76.642,11.404z M74.224,6.977v-0.9h4.734v0.9H74.224z M76.642,9.561c-1.061,0-2.35,0.022-2.35,0.489
			c0,0.446,1.289,0.458,2.35,0.458c0.953,0,2.328-0.013,2.328-0.458C78.97,9.583,77.634,9.561,76.642,9.561z"/>
		<path fill="#004898" d="M82.909,6.821V5.748h10.027v1.073H82.909z M87.917,4.809c-2.455,0-3.822-0.986-3.822-2.376
			C84.095,1.061,85.448,0,87.917,0c2.479,0,3.812,1.048,3.812,2.433C91.729,3.822,90.409,4.809,87.917,4.809z M84.202,10.968V7.794
			h1.135v2.104h6.607v1.069H84.202z M87.925,0.982c-1.576,0-2.611,0.611-2.611,1.437c0,0.831,1.096,1.373,2.604,1.373
			c1.535,0,2.627-0.511,2.627-1.351C90.544,1.602,89.499,0.982,87.925,0.982z"/>
		<path fill="#004898" d="M98.204,6.821V5.748h10.031v1.073H98.204z M103.206,4.809c-2.449,0-3.816-0.986-3.816-2.376
			c0-1.372,1.357-2.433,3.816-2.433c2.488,0,3.822,1.048,3.822,2.433C107.028,3.822,105.702,4.809,103.206,4.809z M99.493,10.968
			V7.794h1.143v2.104h6.604v1.069H99.493z M103.22,0.982c-1.572,0-2.605,0.611-2.605,1.437c0,0.831,1.094,1.373,2.592,1.373
			c1.541,0,2.637-0.511,2.637-1.351C105.843,1.602,104.796,0.982,103.22,0.982z"/>
		<path fill="#004898" d="M109.296,2.796V1.818h5.09v0.978H109.296z M111.829,6.847c-1.381,0-2.295-0.736-2.295-1.788
			c0-1.039,0.914-1.73,2.307-1.73c1.414,0,2.295,0.692,2.295,1.748C114.136,6.111,113.243,6.847,111.829,6.847z M110.509,1.161
			V0.187h2.635v0.974H110.509z M114.524,11.431c-2.502,0-3.881-0.896-3.881-2.103c0-1.203,1.4-2.018,3.902-2.018
			c2.521,0,3.877,0.857,3.877,2.055C118.423,10.569,117.052,11.431,114.524,11.431z M111.841,4.25c-0.791,0-1.178,0.316-1.178,0.827
			c0,0.52,0.387,0.848,1.178,0.848c0.805,0,1.172-0.329,1.172-0.848C113.013,4.566,112.646,4.25,111.841,4.25z M114.538,8.28
			c-1.57,0-2.654,0.355-2.654,1.064c0,0.697,1.064,1.09,2.654,1.09c1.539,0,2.6-0.394,2.6-1.077
			C117.138,8.635,116.101,8.28,114.538,8.28z M117.368,7.042V4.012h-1.178v2.783h-1.064v-6.53h1.064v2.597h1.178V0.074h1.064v6.967
			H117.368z"/>
	</g>
</g>
</svg>
