<?xml version="1.0" encoding="utf-8"?>
<!-- Generator: Adobe Illustrator 16.0.0, SVG Export Plug-In . SVG Version: 6.00 Build 0)  -->
<!DOCTYPE svg PUBLIC "-//W3C//DTD SVG 1.1//EN" "http://www.w3.org/Graphics/SVG/1.1/DTD/svg11.dtd">
<svg version="1.1" id="Layer_1" xmlns="http://www.w3.org/2000/svg" xmlns:xlink="http://www.w3.org/1999/xlink" x="0px" y="0px"
	 width="39.686px" height="39.685px" viewBox="0 0 39.686 39.685" enable-background="new 0 0 39.686 39.685" xml:space="preserve">
<g>
	<rect fill="none" width="39.686" height="39.685"/>
	<g>
		<g>
			<path fill="#3F68B8" d="M38.16,16.869c-1.474-6.517-5.991-12.194-12.649-14.808c-5.167-2.028-10.658-1.95-15.643,0.15
				C8.852,2.641,8.359,3.808,8.789,4.826c0.429,1.018,1.575,1.484,2.593,1.056c4.018-1.692,8.484-1.739,12.674-0.095
				c5.126,2.012,8.661,6.274,10.012,11.229c0.546,0.415,1.22,0.671,1.958,0.671C36.847,17.687,37.588,17.372,38.16,16.869z"/>
		</g>
		<g>
			<path fill="#333333" d="M15.475,31.45c-3.088,0-5.6-2.512-5.6-5.6s2.512-5.6,5.6-5.6s5.601,2.512,5.601,5.6S18.562,31.45,15.475,31.45z
				 M15.475,24.25c-0.882,0-1.6,0.718-1.6,1.6s0.718,1.6,1.6,1.6c0.883,0,1.601-0.718,1.601-1.6S16.357,24.25,15.475,24.25z"/>
		</g>
		<g>
			<path fill="#333333" d="M31.973,38.437H7.578c-3.751,0-6.803-3.051-6.803-6.802V19.238c0-3.75,3.052-6.802,6.803-6.802h24.395
				c3.751,0,6.803,3.051,6.803,6.802v12.396C38.775,35.385,35.724,38.437,31.973,38.437z M7.578,16.437
				c-1.546,0-2.803,1.257-2.803,2.802v12.396c0,1.545,1.257,2.802,2.803,2.802h24.395c1.546,0,2.803-1.257,2.803-2.802V19.238
				c0-1.545-1.257-2.802-2.803-2.802H7.578z"/>
		</g>
	</g>
</g>
</svg>
