<?xml version="1.0" encoding="utf-8"?>
<!-- Generator: Adobe Illustrator 16.0.0, SVG Export Plug-In . SVG Version: 6.00 Build 0)  -->
<!DOCTYPE svg PUBLIC "-//W3C//DTD SVG 1.1//EN" "http://www.w3.org/Graphics/SVG/1.1/DTD/svg11.dtd">
<svg version="1.1" id="Layer_1" xmlns="http://www.w3.org/2000/svg" xmlns:xlink="http://www.w3.org/1999/xlink" x="0px" y="0px"
	 width="57.11px" height="57.255px" viewBox="0 0 57.11 57.255" enable-background="new 0 0 57.11 57.255" xml:space="preserve">
<g>
	<g>
		<path fill="#3F68B8" d="M17.211,49.74c0.015-1.596,0.046-3.192,0.061-4.788c0-0.371,0.047-0.325-0.309-0.48
			c-1.984-0.791-3.828-1.781-5.455-3.176c-1.719-1.472-3.066-3.207-4.059-5.236c-0.945-1.952-1.471-4.028-1.766-6.166
			c-0.109-0.838-0.172-1.674-0.172-2.511c0-0.79-0.123-1.58-0.139-2.371c-0.016-0.557-0.031-1.131-0.016-1.688
			c0.016-1.147-0.093-2.294-0.047-3.439c0.094-2.604,0.559-5.145,1.58-7.562c1.457-3.439,3.844-6.042,7.096-7.87
			c2.449-1.363,5.052-2.231,7.809-2.681c1.705-0.278,3.41-0.434,5.129-0.479c2.045-0.062,4.09-0.046,6.15-0.016
			c2.635,0.031,5.238,0.279,7.793,0.899c2.434,0.574,4.727,1.487,6.834,2.834c2.556,1.627,4.508,3.781,5.825,6.523
			c0.82,1.689,1.317,3.471,1.642,5.314c0.232,1.363,0.326,2.728,0.311,4.106c-0.016,1.456-0.047,2.913-0.14,4.353
			c-0.062,0.992-0.062,1.983-0.108,2.975c-0.17,2.742-0.729,5.392-1.936,7.87c-1.488,3.037-3.734,5.33-6.68,6.988
			c-2.432,1.363-5.034,2.216-7.761,2.68c-2.138,0.357-4.308,0.527-6.477,0.527c-1.333,0-2.665-0.015-3.997,0
			c-0.682,0-1.363,0.015-2.046-0.062c-0.216-0.015-0.371,0.047-0.511,0.217c-1.068,1.24-2.139,2.479-3.223,3.719
			c-1.332,1.533-2.664,3.067-3.981,4.585c-0.14,0.155-0.294,0.31-0.466,0.419c-0.418,0.278-0.852,0.124-0.961-0.372
			c-0.029-0.108-0.015-0.248-0.015-0.356C17.164,52.916,17.193,51.32,17.211,49.74L17.211,49.74z"/>
		<g>
			<path d="M17.744,56.612c-0.863,0-1.575-0.599-1.771-1.49c-0.057-0.204-0.05-0.44-0.045-0.581
				c-0.011-1.293,0.005-2.563,0.021-3.828l0.012-0.987c0.008-0.798,0.019-1.598,0.03-2.398c0.009-0.631,0.019-1.262,0.025-1.893
				c-2.094-0.876-3.849-1.927-5.322-3.191c-1.841-1.576-3.311-3.472-4.368-5.636c-0.921-1.902-1.535-4.041-1.881-6.543
				c-0.124-0.949-0.184-1.823-0.184-2.682c0-0.387-0.033-0.774-0.065-1.161c-0.033-0.395-0.065-0.79-0.073-1.185
				c-0.016-0.57-0.031-1.167-0.015-1.748c0.006-0.473-0.012-0.964-0.028-1.455c-0.022-0.648-0.046-1.318-0.019-1.999
				c0.106-2.962,0.655-5.58,1.678-7.999c1.543-3.643,4.112-6.493,7.635-8.473c2.503-1.393,5.267-2.343,8.22-2.825
				c1.72-0.281,3.502-0.447,5.297-0.495c2.053-0.063,4.122-0.047,6.202-0.016c2.985,0.036,5.626,0.341,8.069,0.934
				c2.653,0.625,5.083,1.634,7.213,2.996c2.77,1.764,4.883,4.131,6.278,7.035c0.795,1.637,1.366,3.483,1.746,5.639
				c0.239,1.403,0.347,2.819,0.329,4.337c-0.015,1.312-0.042,2.864-0.143,4.419c-0.034,0.555-0.049,1.111-0.064,1.668
				c-0.011,0.428-0.022,0.856-0.042,1.284c-0.198,3.19-0.871,5.918-2.061,8.36c-1.564,3.192-3.983,5.725-7.19,7.53
				c-2.437,1.366-5.184,2.315-8.164,2.823c-2.168,0.362-4.416,0.545-6.687,0.545l-2.665-0.007c-0.439,0-0.879,0.002-1.317,0.007
				l-0.591,0.001c-0.45,0-0.848-0.007-1.244-0.037c-1.011,1.173-2.008,2.327-3.018,3.482l-3.979,4.582
				c-0.189,0.21-0.429,0.458-0.741,0.656C18.506,56.492,18.125,56.612,17.744,56.612z M29.985,2.5c-1.009,0-2.017,0.012-3.023,0.042
				c-1.688,0.045-3.356,0.201-4.966,0.464c-2.704,0.441-5.125,1.272-7.401,2.54c-3.067,1.724-5.213,4.101-6.553,7.266
				c-0.901,2.132-1.387,4.461-1.482,7.119c-0.023,0.593-0.003,1.188,0.019,1.818c0.019,0.531,0.036,1.062,0.029,1.594
				c-0.016,0.552,0,1.102,0.015,1.636c0.008,0.353,0.037,0.695,0.065,1.038c0.038,0.456,0.074,0.912,0.074,1.368
				c0,0.749,0.053,1.517,0.161,2.349c0.308,2.23,0.849,4.125,1.651,5.782c0.918,1.878,2.144,3.459,3.747,4.832
				c1.383,1.187,3.005,2.128,5.104,2.965l0.099,0.042c0.503,0.217,1.015,0.566,0.998,1.506l-0.001,0.105
				c-0.008,0.8-0.019,1.6-0.03,2.4c-0.012,0.796-0.023,1.592-0.03,2.388l-0.012,0.993c-0.011,0.792-0.021,1.586-0.023,2.379
				l3.232-3.723c1.084-1.241,2.152-2.478,3.219-3.715c0.345-0.419,0.834-0.653,1.397-0.653l0.148,0.005
				c0.459,0.051,0.878,0.06,1.382,0.06l0.576-0.001c0.435-0.005,0.883-0.007,1.332-0.007l2.665,0.007
				c2.133,0,4.243-0.172,6.271-0.51c2.732-0.465,5.14-1.295,7.355-2.537c2.795-1.573,4.813-3.683,6.169-6.447
				c1.042-2.14,1.634-4.561,1.81-7.397c0.019-0.393,0.029-0.804,0.04-1.216c0.016-0.587,0.032-1.174,0.069-1.761
				c0.096-1.498,0.123-3.008,0.137-4.288c0.016-1.367-0.08-2.637-0.293-3.883c-0.337-1.918-0.839-3.548-1.533-4.978
				c-1.209-2.516-2.966-4.482-5.373-6.015c-1.894-1.211-4.062-2.109-6.449-2.672c-2.266-0.55-4.723-0.833-7.521-0.866
				C32.028,2.511,31.006,2.5,29.985,2.5z"/>
		</g>
		<path fill="#FFFFFF" d="M43.026,29.048c-1,0.72-1.65,0.72-2.369,0l-3.943-4.062c-0.721-0.72-0.662-1.888,0.059-2.608l3.854-4.062
			c0.72-0.72,1.399-0.72,2.399,0V29.048z"/>
		<path fill="#FFFFFF" d="M34.026,29.411c0,1.019-0.826,1.844-1.845,1.844H18.871c-1.019,0-1.845-0.826-1.845-1.844V19.1
			c0-1.019,0.826-1.844,1.845-1.844h13.311c1.019,0,1.845,0.826,1.845,1.844V29.411z"/>
	</g>
	<g>
		<path d="M54.5,57.255h-19c-0.828,0-1.5-0.671-1.5-1.5s0.672-1.5,1.5-1.5h19c0.828,0,1.5,0.671,1.5,1.5S55.328,57.255,54.5,57.255z
			"/>
	</g>
	<g>
		<path d="M8.5,57.255h-7c-0.828,0-1.5-0.671-1.5-1.5s0.672-1.5,1.5-1.5h7c0.828,0,1.5,0.671,1.5,1.5S9.328,57.255,8.5,57.255z"/>
	</g>
</g>
</svg>
