<?xml version="1.0" encoding="utf-8"?>
<!-- Generator: Adobe Illustrator 24.2.1, SVG Export Plug-In . SVG Version: 6.00 Build 0)  -->
<svg version="1.1" id="레이어_1" xmlns="http://www.w3.org/2000/svg" xmlns:xlink="http://www.w3.org/1999/xlink" x="0px"
	 y="0px" viewBox="0 0 24 24" style="enable-background:new 0 0 24 24;" xml:space="preserve">
<style type="text/css">
	.st0{fill:#FFFFFF;}
</style>
<path class="st0" d="M4.7,20.5c0,1.3,1.1,2.4,2.4,2.4h9.7c1.3,0,2.4-1.1,2.4-2.4V8.4c0-1.3-1.1-2.4-2.4-2.4H7.1
	C5.8,5.9,4.7,7,4.7,8.4V20.5z M19.3,2.3h-3l-0.9-0.9c-0.2-0.2-0.5-0.4-0.9-0.4H9.4c-0.4,0-0.6,0.1-0.9,0.4L7.7,2.3h-3
	C4,2.3,3.5,2.8,3.5,3.5S4,4.7,4.7,4.7h14.6c0.6,0,1.2-0.5,1.2-1.2S19.9,2.3,19.3,2.3z"/>
</svg>
