<svg width="24" height="24" viewBox="0 0 24 24" fill="none" xmlns="http://www.w3.org/2000/svg">
<path d="M14.2 13.7L15.6 11.3C15.7 11.2 15.7 11 15.5 10.9L14 9.7C14 9.5 14.1 9.3 14.1 9C14.1 8.7 14.1 8.5 14 8.3L15.5 7.1C15.6 7 15.7 6.8 15.6 6.7L14.2 4.3C14.1 4.1 13.9 4.1 13.8 4.1L12 4.8C11.6 4.5 11.2 4.3 10.8 4.1L10.5 2.3C10.5 2.1 10.3 2 10.2 2H7.4C7.2 2 7.1 2.1 7.1 2.3L6.8 4.2C6.4 4.3 6 4.6 5.6 4.8L3.9 4.1C3.7 4 3.6 4.1 3.5 4.3L2 6.7C2 6.9 2 7.1 2.1 7.2L3.6 8.4C3.6 8.6 3.5 8.9 3.5 9.1C3.5 9.3 3.5 9.6 3.5 9.8L2 11C2 11 2 11.1 2 11.3L3.4 13.7C3.5 13.8 3.7 13.9 3.8 13.8L5.5 13.1C5.9 13.4 6.3 13.6 6.7 13.8L7 15.7C7 15.9 7.2 16 7.4 16H10.2C10.4 16 10.5 15.9 10.6 15.7L10.9 13.8C11.3 13.6 11.7 13.4 12.1 13.1L13.8 13.8C13.9 13.9 14.1 13.9 14.2 13.7ZM8.8 11C7.7 11 6.8 10.1 6.8 9C6.8 7.9 7.7 7 8.8 7C9.9 7 10.8 7.9 10.8 9C10.8 10.1 9.9 11 8.8 11Z" fill="#364FC7"/>
<path d="M21.8992 18.7L20.8992 18C20.8992 17.9 20.8992 17.7 20.8992 17.6C20.8992 17.5 20.8992 17.3 20.8992 17.2L21.8992 16.5C21.9992 16.4 21.9992 16.3 21.8992 16.2L20.9992 14.6C20.9992 14.5 20.7992 14.5 20.6992 14.5L19.5992 14.9C19.3992 14.7 19.0992 14.6 18.7992 14.5L18.5992 13.3C18.5992 13.2 18.4992 13.1 18.3992 13.1H16.5992C16.4992 13.1 16.3992 13.2 16.3992 13.3L16.1992 14.5C15.8992 14.6 15.6992 14.8 15.3992 14.9L14.2992 14.5C14.1992 14.5 14.0992 14.5 13.9992 14.6L13.2992 16C13.1992 16.1 13.2992 16.2 13.3992 16.3L14.2992 17C14.2992 17.1 14.2992 17.3 14.2992 17.4C14.2992 17.5 14.2992 17.7 14.2992 17.8L13.3992 18.5C13.2992 18.6 13.2992 18.7 13.2992 18.8L14.1992 20.3C14.2992 20.4 14.3992 20.4 14.4992 20.4L15.5992 19.9C15.7992 20.1 16.0992 20.2 16.3992 20.3L16.5992 21.5C16.5992 21.6 16.6992 21.7 16.7992 21.7H18.5992C18.6992 21.7 18.7992 21.6 18.7992 21.5L18.9992 20.3C19.2992 20.2 19.4992 20 19.7992 19.9L20.8992 20.4C20.9992 20.4 21.0992 20.4 21.1992 20.3L21.9992 19C21.9992 18.9 21.9992 18.7 21.8992 18.7ZM17.5992 18.8C16.8992 18.8 16.1992 18.2 16.1992 17.4C16.1992 16.6 16.7992 16 17.5992 16C18.3992 16 18.9992 16.6 18.9992 17.4C18.9992 18.2 18.3992 18.8 17.5992 18.8Z" fill="#364FC7"/>
</svg>
