<svg width="24" height="24" viewBox="0 0 24 24" fill="none" xmlns="http://www.w3.org/2000/svg">
<path d="M17 7H14C13.4 7 13 7.4 13 8C13 8.6 13.4 9 14 9H17C18.6 9 20 10.4 20 12C20 13.6 18.6 15 17 15H14C13.4 15 13 15.4 13 16C13 16.5 13.4 17 14 17H17C19.8 17 22 14.8 22 12C22 9.2 19.8 7 17 7ZM8 12C8 12.6 8.4 13 9 13H15C15.6 13 16 12.6 16 12C16 11.4 15.6 11 15 11H9C8.4 11 8 11.4 8 12ZM10 15H7C5.3 15 4 13.6 4 12C4 10.4 5.3 9 7 9H10C10.6 9 11 8.6 11 8C11 7.4 10.6 7 10 7H7C4.2 7 2 9.2 2 12C2 14.8 4.2 17 7 17H10C10.6 17 11 16.5 11 16C11 15.5 10.6 15 10 15Z" fill="#364FC7"/>
</svg>
