<svg width="24" height="24" viewBox="0 0 24 24" fill="none" xmlns="http://www.w3.org/2000/svg">
<path d="M12 20L11.1 19.1C10 18 10 16 11.2 14.9L12 14.1C11.6 14.1 11.3 14 11 14C8.3 14 3 15.3 3 18V20H12ZM11 12C13.2 12 15 10.2 15 8C15 5.8 13.2 4 11 4C8.8 4 7 5.8 7 8C7 10.2 8.8 12 11 12Z" fill="#868E96"/>
<path d="M16.1984 19.8C15.7984 20.2 15.1984 20.2 14.7984 19.8L12.6984 17.7C12.2984 17.3 12.2984 16.7 12.6984 16.3C13.0984 15.9 13.6984 15.9 14.0984 16.3L15.4984 17.7L19.8984 13.2C20.2984 12.8 20.8984 12.8 21.2984 13.2C21.6984 13.6 21.6984 14.2 21.2984 14.6L16.1984 19.8Z" fill="#868E96"/>
</svg>
