<svg width="24" height="24" viewBox="0 0 24 24" fill="none" xmlns="http://www.w3.org/2000/svg">
<path d="M22 6.4C22.4971 6.4 22.9 5.99706 22.9 5.5C22.9 5.00294 22.4971 4.6 22 4.6L22 6.4ZM10 4.6C9.50294 4.6 9.1 5.00294 9.1 5.5C9.1 5.99706 9.50294 6.4 10 6.4L10 4.6ZM22 4.6L10 4.6L10 6.4L22 6.4L22 4.6Z" fill="#868E96"/>
<path d="M1.5 4.5L3.5 6.5L7.5 2.5M1.5 10.5L3.5 12.5L7.5 8.5" stroke="#868E96" stroke-width="1.8" stroke-linecap="round" stroke-linejoin="round"/>
<path d="M22 12.9C22.4971 12.9 22.9 12.4971 22.9 12C22.9 11.5029 22.4971 11.1 22 11.1L22 12.9ZM10 11.1C9.50294 11.1 9.1 11.5029 9.1 12C9.1 12.4971 9.50294 12.9 10 12.9L10 11.1ZM22 11.1L10 11.1L10 12.9L22 12.9L22 11.1Z" fill="#868E96"/>
<path d="M22 19.4C22.4971 19.4 22.9 18.9971 22.9 18.5C22.9 18.0029 22.4971 17.6 22 17.6L22 19.4ZM10 17.6C9.50294 17.6 9.1 18.0029 9.1 18.5C9.1 18.9971 9.50294 19.4 10 19.4L10 17.6ZM22 17.6L10 17.6L10 19.4L22 19.4L22 17.6Z" fill="#868E96"/>
<circle cx="3.5" cy="18.5" r="1.25" stroke="#868E96" stroke-width="2.5"/>
</svg>
