<svg width="24" height="24" viewBox="0 0 24 24" fill="none" xmlns="http://www.w3.org/2000/svg">
<path fill-rule="evenodd" clip-rule="evenodd" d="M3.39961 12C3.39961 7.25036 7.24996 3.40001 11.9996 3.40001C16.7493 3.40001 20.5996 7.25036 20.5996 12C20.5996 16.7497 16.7493 20.6 11.9996 20.6C7.24996 20.6 3.39961 16.7497 3.39961 12ZM11.9996 1.60001C6.25585 1.60001 1.59961 6.25624 1.59961 12C1.59961 17.7438 6.25585 22.4 11.9996 22.4C17.7434 22.4 22.3996 17.7438 22.3996 12C22.3996 6.25624 17.7434 1.60001 11.9996 1.60001ZM12.7276 13.968H11.1916L10.8556 8.064L10.7756 5.84H13.1436L13.0636 8.064L12.7276 13.968ZM13.4316 16.688C13.4316 17.552 12.7916 18.224 11.9596 18.224C11.1276 18.224 10.5036 17.552 10.5036 16.688C10.5036 15.824 11.1276 15.152 11.9596 15.152C12.7916 15.152 13.4316 15.824 13.4316 16.688Z" fill="#F59F00"/>
</svg>
