<svg width="24" height="24" viewBox="0 0 24 24" fill="none" xmlns="http://www.w3.org/2000/svg">
<path d="M21.8995 11.2C21.5995 8.80005 19.2995 7.00005 16.7995 7.00005H13.8995C13.3995 7.00005 12.9995 7.40005 12.9995 7.90005C12.9995 8.40005 13.3995 8.80005 13.8995 8.80005H16.7995C18.3995 8.80005 19.7995 9.90005 19.9995 11.5C20.1995 12.9 19.3995 14.2 18.0995 14.7L19.4995 16.1C21.1995 15.2 22.2995 13.3 21.8995 11.2ZM4.0995 3.60005C3.6995 3.20005 3.0995 3.20005 2.6995 3.60005C2.2995 4.00005 2.2995 4.60005 2.6995 5.00005L5.0995 7.40005C3.1995 8.20005 1.7995 10.2 1.9995 12.4C2.1995 15.1 4.5995 17 7.1995 17H9.9995C10.4995 17 10.8995 16.6 10.8995 16C10.8995 15.4 10.4995 15.1 9.9995 15.1H7.1995C5.5995 15.1 4.0995 13.9 3.9995 12.3C3.7995 10.6 4.9995 9.10005 6.6995 8.90005L8.7995 11C8.2995 11.1 7.9995 11.5 7.9995 12V12.1C7.9995 12.6 8.3995 13 8.8995 13H10.6995L12.9995 15.3V17H14.6995L17.9995 20.3C18.3995 20.7 18.9995 20.7 19.3995 20.3C19.7995 19.9 19.7995 19.3 19.3995 18.9L4.0995 3.60005ZM15.9995 11.9C15.9995 11.4 15.5995 11 15.0995 11H14.3995L15.8995 12.5C15.9995 12.4 15.9995 12.2 15.9995 12.1V11.9Z" fill="#868E96"/>
</svg>
