<svg width="18" height="18" viewBox="0 0 18 18" fill="none" xmlns="http://www.w3.org/2000/svg">
<g clip-path="url(#clip0)">
<path d="M14 13L10 9V5.8C11.4 5.3 12.3 3.89999 11.9 2.29999C11.7 1.19999 10.7 0.199995 9.5 -4.94346e-06C7.6 -0.300005 6 1.2 6 2.99999C6 4.29999 6.8 5.4 8 5.8V9L4 13H1C0.5 13 0 13.5 0 14V17C0 17.5 0.5 18 1 18H4C4.6 18 5 17.5 5 17V15L9 10.8L13 15V17C13 17.5 13.5 18 14 18H17C17.5 18 18 17.5 18 17V14C18 13.5 17.5 13 17 13H14Z" fill="#868E96"/>
</g>
<defs>
<clipPath id="clip0">
<rect width="18" height="18" fill="white"/>
</clipPath>
</defs>
</svg>
