<svg width="24" height="24" viewBox="0 0 24 24" fill="none" xmlns="http://www.w3.org/2000/svg">
<path d="M14 9.5H17C17.5 9.5 18 9.1 18 8.5C18 7.9 17.5 7.5 17 7.5H14C13.4 7.5 13 7.9 13 8.5C13 9.1 13.4 9.5 14 9.5ZM14 16.5H17C17.5 16.5 18 16 18 15.5C18 15 17.5 14.5 17 14.5H14C13.4 14.5 13 14.9 13 15.5C13 16 13.4 16.5 14 16.5ZM19 21H5C3.9 21 3 20.1 3 19V5C3 3.9 3.9 3 5 3H19C20.1 3 21 3.9 21 5V19C21 20.1 20.1 21 19 21ZM7 11H10C10.6 11 11 10.6 11 10V7C11 6.4 10.6 6 10 6H7C6.4 6 6 6.4 6 7V10C6 10.6 6.4 11 7 11ZM7 7H10V10H7V7ZM7 18H10C10.6 18 11 17.5 11 17V14C11 13.4 10.6 13 10 13H7C6.4 13 6 13.4 6 14V17C6 17.5 6.4 18 7 18ZM7 14H10V17H7V14Z" fill="#364FC7"/>
</svg>
