<svg width="24" height="24" viewBox="0 0 24 24" fill="none" xmlns="http://www.w3.org/2000/svg">
<path d="M8 17C7.4 17 7 16.5 7 16V11C7 10.4 7.4 10 8 10C8.6 10 9 10.4 9 11V16C9 16.5 8.6 17 8 17ZM12 17C11.4 17 11 16.5 11 16V8C11 7.4 11.4 7 12 7C12.6 7 13 7.4 13 8V16C13 16.5 12.6 17 12 17ZM16 17C15.4 17 15 16.5 15 16V14C15 13.4 15.4 13 16 13C16.5 13 17 13.4 17 14V16C17 16.5 16.5 17 16 17ZM18 19H6C5.4 19 5 18.5 5 18V6C5 5.4 5.4 5 6 5H18C18.5 5 19 5.4 19 6V18C19 18.5 18.5 19 18 19ZM19 3H5C3.9 3 3 3.9 3 5V19C3 20.1 3.9 21 5 21H19C20.1 21 21 20.1 21 19V5C21 3.9 20.1 3 19 3Z" fill="#868E96"/>
</svg>
