<svg width="24" height="24" viewBox="0 0 24 24" fill="none" xmlns="http://www.w3.org/2000/svg">
<path d="M2.5 9.34752C2.5 7.77488 3.77488 6.50001 5.34752 6.50001V6.50001C6.36937 6.50001 7.31288 5.95247 7.81986 5.06525L8.2 4.4C8.41738 4.01959 8.52607 3.82938 8.6621 3.67547C8.94813 3.35186 9.33124 3.12954 9.75412 3.04175C9.95524 3 10.1743 3 10.6125 3H13.3875C13.8257 3 14.0448 3 14.2459 3.04175C14.6688 3.12954 15.0519 3.35186 15.3379 3.67547C15.4739 3.82938 15.5826 4.01959 15.8 4.4L16.1801 5.06525C16.6871 5.95247 17.6306 6.50001 18.6525 6.50001V6.50001C20.2251 6.50001 21.5 7.77488 21.5 9.34752V15.7C21.5 17.3802 21.5 18.2202 21.173 18.862C20.8854 19.4265 20.4265 19.8854 19.862 20.173C19.2202 20.5 18.3802 20.5 16.7 20.5H7.3C5.61984 20.5 4.77976 20.5 4.13803 20.173C3.57354 19.8854 3.1146 19.4265 2.82698 18.862C2.5 18.2202 2.5 17.3802 2.5 15.7V9.34752Z" stroke="#364FC7" stroke-width="1.8" stroke-linecap="round" stroke-linejoin="round"/>
<circle cx="12" cy="13.5" r="4" stroke="#364FC7" stroke-width="1.8"/>
<circle cx="18.25" cy="9.75" r="0.75" stroke="#364FC7" stroke-width="1.5"/>
</svg>
