<svg width="16" height="17" viewBox="0 0 16 17" fill="none" xmlns="http://www.w3.org/2000/svg">
<path fill-rule="evenodd" clip-rule="evenodd" d="M7.98438 13.7961H15.6361V2.48486H7.98438V13.7961Z" fill="white"/>
<path fill-rule="evenodd" clip-rule="evenodd" d="M15.6358 14.1287H8.98211C8.79822 14.1287 8.64941 13.9799 8.64941 13.796C8.64941 13.6122 8.79822 13.4634 8.98211 13.4634H15.3031V2.81746H8.98211C8.79822 2.81746 8.64941 2.66868 8.64941 2.48479C8.64941 2.3009 8.79822 2.1521 8.98211 2.1521H15.6358C15.8197 2.1521 15.9685 2.3009 15.9685 2.48479V13.796C15.9685 13.9799 15.8197 14.1287 15.6358 14.1287Z" fill="#177848"/>
<path fill-rule="evenodd" clip-rule="evenodd" d="M9.31515 0.156006L0 1.89174V14.3891L9.31515 16.1248V0.156006Z" fill="#177848"/>
<path fill-rule="evenodd" clip-rule="evenodd" d="M8.64941 4.81365H11.3109V3.48291H8.64941V4.81365Z" fill="#177848"/>
<path fill-rule="evenodd" clip-rule="evenodd" d="M11.9766 4.81365H14.638V3.48291H11.9766V4.81365Z" fill="#177848"/>
<path fill-rule="evenodd" clip-rule="evenodd" d="M8.64941 6.80975H11.3109V5.479H8.64941V6.80975Z" fill="#177848"/>
<path fill-rule="evenodd" clip-rule="evenodd" d="M11.9766 6.80975H14.638V5.479H11.9766V6.80975Z" fill="#177848"/>
<path fill-rule="evenodd" clip-rule="evenodd" d="M8.64941 8.80584H11.3109V7.4751H8.64941V8.80584Z" fill="#177848"/>
<path fill-rule="evenodd" clip-rule="evenodd" d="M11.9766 8.80584H14.638V7.4751H11.9766V8.80584Z" fill="#177848"/>
<path fill-rule="evenodd" clip-rule="evenodd" d="M8.64941 10.8019H11.3109V9.47119H8.64941V10.8019Z" fill="#177848"/>
<path fill-rule="evenodd" clip-rule="evenodd" d="M11.9766 10.8019H14.638V9.47119H11.9766V10.8019Z" fill="#177848"/>
<path fill-rule="evenodd" clip-rule="evenodd" d="M8.64941 12.798H11.3109V11.4673H8.64941V12.798Z" fill="#177848"/>
<path fill-rule="evenodd" clip-rule="evenodd" d="M11.9766 12.798H14.638V11.4673H11.9766V12.798Z" fill="#177848"/>
<path fill-rule="evenodd" clip-rule="evenodd" d="M4.89518 8.4732L6.42394 5.72142L6.40464 5.71069L5.2425 5.79369L4.32451 7.44602L3.47661 5.91982L2.37891 5.99823L3.75385 8.4732L2.37891 10.9482L3.47661 11.0266L4.32451 9.50039L5.2425 11.1527L6.40464 11.2357L6.42394 11.225L4.89518 8.4732Z" fill="white"/>
</svg>
