<svg width="24" height="24" viewBox="0 0 24 24" fill="none" xmlns="http://www.w3.org/2000/svg">
<path d="M12 10C10.9 10 10 10.9 10 12C10 13.1 10.9 14 12 14C13.1 14 14 13.1 14 12C14 10.9 13.1 10 12 10ZM19 3H5C3.9 3 3 3.9 3 5V19C3 20.1 3.9 21 5 21H19C20.1 21 21 20.1 21 19V5C21 3.9 20.1 3 19 3ZM17.2 12C17.2 12.2 17.2 12.5 17.2 12.7L18.7 13.9C18.8 14 18.9 14.2 18.8 14.3L17.4 16.7C17.3 16.8 17.1 16.9 17 16.8L15.3 16.1C14.9 16.4 14.5 16.6 14.1 16.8L13.8 18.7C13.8 18.9 13.6 19 13.4 19H10.6C10.4 19 10.3 18.9 10.2 18.7L10 16.9C9.6 16.7 9.2 16.5 8.8 16.2L7.1 16.9C6.9 17 6.8 16.9 6.7 16.8L5.3 14.4C5.2 14.3 5.2 14.1 5.4 14L6.9 12.8C6.9 12.6 6.8 12.3 6.8 12.1C6.8 11.9 6.8 11.6 6.9 11.4L5.4 10.2C5.2 10 5.1 9.9 5.2 9.7L6.6 7.3C6.7 7.1 6.9 7.1 7 7.1L8.7 7.8C9.2 7.6 9.6 7.3 10 7.1L10.3 5.3C10.3 5.1 10.5 5 10.7 5H13.5C13.7 5 13.8 5.1 13.9 5.3L14 7.1C14.4 7.3 14.8 7.5 15.2 7.8L16.9 7.1C17.1 7 17.2 7.1 17.3 7.3L18.7 9.7C18.8 9.8 18.7 10 18.6 10.1L17.1 11.3C17.2 11.5 17.2 11.8 17.2 12Z" fill="#868E96"/>
</svg>
