<svg width="24" height="24" viewBox="0 0 24 24" fill="none" xmlns="http://www.w3.org/2000/svg">
<path d="M19 3H5C3.9 3 3 3.9 3 5V19C3 20.1 3.9 21 5 21H19C20.1 21 21 20.1 21 19V5C21 3.9 20.1 3 19 3ZM19 19H5V7H19V19ZM13.5 13C13.5 13.8 12.8 14.5 12 14.5C11.2 14.5 10.5 13.8 10.5 13C10.5 12.2 11.2 11.5 12 11.5C12.8 11.5 13.5 12.2 13.5 13ZM12 9C9.3 9 6.9 10.7 6 13C6.9 15.3 9.3 17 12 17C14.7 17 17.1 15.3 18 13C17.1 10.7 14.7 9 12 9ZM12 15.5C10.6 15.5 9.5 14.4 9.5 13C9.5 11.6 10.6 10.5 12 10.5C13.4 10.5 14.5 11.6 14.5 13C14.5 14.4 13.4 15.5 12 15.5Z" fill="white"/>
</svg>
