<svg width="24" height="24" viewBox="0 0 24 24" fill="none" xmlns="http://www.w3.org/2000/svg">
<path d="M21 4H3C1.9 4 1 4.9 1 6V19C1 20.1 1.9 21 3 21H21C22.1 21 23 20.1 23 19V6C23 4.9 22.1 4 21 4ZM21 18C21 18.5 20.5 19 20 19H12V6H20C20.5 6 21 6.4 21 7V18ZM19.2 9.5H13.7C13.3 9.5 12.9 9.8 12.9 10.3C12.9 10.8 13.2 11.1 13.7 11.1H19.2C19.6 11.1 20 10.8 20 10.3C20 9.8 19.7 9.5 19.2 9.5ZM19.2 12H13.7C13.3 12 12.9 12.3 12.9 12.8C12.9 13.3 13.2 13.6 13.7 13.6H19.2C19.6 13.6 20 13.3 20 12.8C20 12.3 19.7 12 19.2 12ZM19.2 14.5H13.7C13.3 14.5 12.9 14.8 12.9 15.3C12.9 15.8 13.2 16.1 13.7 16.1H19.2C19.6 16.1 20 15.8 20 15.3C20 14.8 19.7 14.5 19.2 14.5Z" fill="#868E96"/>
</svg>
