<?xml version="1.0" encoding="utf-8"?>
<!-- Generator: Adobe Illustrator 24.2.1, SVG Export Plug-In . SVG Version: 6.00 Build 0)  -->
<svg version="1.1" id="레이어_1" xmlns="http://www.w3.org/2000/svg" xmlns:xlink="http://www.w3.org/1999/xlink" x="0px"
	 y="0px" viewBox="0 0 16 16" style="enable-background:new 0 0 16 16;" xml:space="preserve">
<style type="text/css">
	.st0{fill:#FFFFFF;}
</style>
<path class="st0" d="M1,7h14c0.6,0,1,0.4,1,1l0,0c0,0.6-0.4,1-1,1H1C0.4,9,0,8.6,0,8l0,0C0,7.4,0.4,7,1,7z"/>
<path class="st0" d="M7,15V1c0-0.6,0.4-1,1-1l0,0c0.6,0,1,0.4,1,1v14c0,0.6-0.4,1-1,1l0,0C7.4,16,7,15.6,7,15z"/>
</svg>
