<svg width="23" height="23" viewBox="0 0 23 23" fill="none" xmlns="http://www.w3.org/2000/svg">
<path d="M8.07102 15.1423L7.57102 15.1423C7.57102 15.2749 7.6237 15.4021 7.71747 15.4959C7.81124 15.5896 7.93841 15.6423 8.07102 15.6423L8.07102 15.1423ZM8.57102 1.00018C8.57102 0.724033 8.34716 0.500176 8.07102 0.500175C7.79488 0.500177 7.57102 0.724034 7.57102 1.00018H8.57102ZM22.2132 15.6423C22.4893 15.6423 22.7132 15.4185 22.7132 15.1423C22.7132 14.8662 22.4893 14.6423 22.2132 14.6423L22.2132 15.6423ZM8.57102 15.1423L8.57102 1.00018H7.57102L7.57102 15.1423L8.57102 15.1423ZM22.2132 14.6423L8.07102 14.6423L8.07102 15.6423L22.2132 15.6423L22.2132 14.6423Z" fill="#E5E5E5"/>
</svg>
