<?xml version="1.0" encoding="utf-8"?>
<!-- Generator: Adobe Illustrator 16.0.0, SVG Export Plug-In . SVG Version: 6.00 Build 0)  -->
<!DOCTYPE svg PUBLIC "-//W3C//DTD SVG 1.1//EN" "http://www.w3.org/Graphics/SVG/1.1/DTD/svg11.dtd">
<svg version="1.1" id="Layer_1" xmlns="http://www.w3.org/2000/svg" xmlns:xlink="http://www.w3.org/1999/xlink" x="0px" y="0px"
	 width="39.686px" height="39.685px" viewBox="0 0 39.686 39.685" enable-background="new 0 0 39.686 39.685" xml:space="preserve">
<g>
	<g>
		<path fill="#333333" d="M17.598,36.437H9.11c-4.143,0-7.335-3.984-7.335-8.3V9.476c0-4.213,3.122-7.039,7.335-7.039h8.487c1.104,0,2,0.896,2,2
			s-0.896,2-2,2H9.11c-2.035,0-3.335,1.004-3.335,3.039v18.661c0,2.11,1.397,4.3,3.335,4.3h8.487c1.104,0,2,0.896,2,2
			S18.702,36.437,17.598,36.437z"/>
	</g>
	<path fill="#3F68B8" d="M37.169,17.391L25.854,6.078c-0.779-0.781-2.047-0.781-2.828,0c-0.781,0.781-0.781,2.284,0,3.065
		l8.057,8.294H17.598c-1.104,0-2,0.896-2,2s0.896,2,2,2h13.171l-7.742,7.505c-0.781,0.781-0.781,1.929,0,2.709
		c0.391,0.391,0.902,0.527,1.414,0.527s1.024-0.225,1.414-0.615l11.15-11.166c0.004-0.004,0.008-0.016,0.013-0.02l0.151-0.155
		C37.95,19.442,37.95,18.172,37.169,17.391z"/>
	<rect fill="none" width="39.686" height="39.685"/>
</g>
</svg>
